# xmcd CD database file
#
# Track frame offsets:
#	150
#	17535
#	41120
#	66573
#	84699
#	105144
#	122357
#	148700
#	166106
#	186152
#
# Disc length: 2693 seconds
#
# Revision: 0
# Processed by: cddbd v1.5.2PL0 Copyright (c) Steve Scherf et al.
# Submitted via: CDex 1.51
#
DISCID=7d0a830a
DTITLE=Shola Adisa-Farrar and Florian Pelissier Quintet -  Lost Myself 
DYEAR=2016
DGENRE=Jazz
TTITLE0=Evolution
TTITLE1=I Have A Dream
TTITLE2=Feeling Good
TTITLE3=Flow
TTITLE4=Sorrow Tears And Blood
TTITLE5=Blue Chords
TTITLE6=Going Nowhere
TTITLE7=What A Night
TTITLE8=Spirit
TTITLE9=Fall In Love
EXTD=YEAR: 2016
EXTT0=
EXTT1=
EXTT2=
EXTT3=
EXTT4=
EXTT5=
EXTT6=
EXTT7=
EXTT8=
EXTT9=
PLAYORDER=
